<svg width="31" height="31" viewBox="0 0 31 31" fill="none" xmlns="http://www.w3.org/2000/svg">
<g id="mdi:weather-sun-wireless-outline">
<path id="Vector" d="M14.2083 1.29166L17.2954 5.70916C16.3396 5.36041 15.2933 5.16666 14.2083 5.16666C13.1233 5.16666 12.0771 5.36041 11.1212 5.70916L14.2083 1.29166ZM3.0225 7.75L8.39583 7.29791C7.59416 7.97506 6.91287 8.78299 6.38083 9.6875C5.8125 10.6433 5.48958 11.625 5.30875 12.6454L3.0225 7.75ZM3.04833 20.6667L5.32167 15.7971C5.70136 17.8799 6.78699 19.7684 8.39583 21.1446L3.04833 20.6667ZM25.3813 7.75L23.095 12.6454C22.7292 10.5539 21.6413 8.65697 20.0208 7.285L25.3813 7.75ZM29.7083 16.7917H27.125C27.125 19.4396 26.1175 22.0875 24.1025 24.1025C23.1441 25.0644 22.0045 25.8267 20.7496 26.3455C19.4948 26.8643 18.1495 27.1293 16.7917 27.125V29.7083C20.0983 29.7083 23.405 28.4167 25.9237 25.9237C28.4425 23.4308 29.7083 20.0983 29.7083 16.7917ZM24.5417 16.7917H21.9583C21.9583 18.0833 21.4546 19.4396 20.4471 20.4471C19.4396 21.4546 18.0833 21.9583 16.7917 21.9583V24.5417C17.8099 24.5435 18.8186 24.3444 19.7597 23.9555C20.7008 23.5667 21.5559 22.9959 22.2759 22.2759C22.9959 21.5559 23.5667 20.7008 23.9555 19.7597C24.3444 18.8186 24.5435 17.8099 24.5417 16.7917ZM14.2083 10.3333C16.3396 10.3333 18.0833 12.0771 18.0833 14.2083C18.0833 16.3396 16.3396 18.0833 14.2083 18.0833C12.0771 18.0833 10.3333 16.3396 10.3333 14.2083C10.3333 12.0771 12.0771 10.3333 14.2083 10.3333ZM14.2083 7.75C10.6433 7.75 7.75 10.6433 7.75 14.2083C7.75 17.7733 10.6433 20.6667 14.2083 20.6667C17.7733 20.6667 20.6667 17.7733 20.6667 14.2083C20.6667 10.6433 17.7733 7.75 14.2083 7.75Z" fill="white"/>
</g>
</svg>
